<?xml version="1.0" standalone="no"?>
<!DOCTYPE svg PUBLIC "-//W3C//DTD SVG 20010904//EN"
 "http://www.w3.org/TR/2001/REC-SVG-20010904/DTD/svg10.dtd">
<svg version="1.0" xmlns="http://www.w3.org/2000/svg"
 width="200.000000pt" height="200.000000pt" viewBox="0 0 200.000000 200.000000"
 preserveAspectRatio="xMidYMid meet">

<g transform="translate(0.000000,200.000000) scale(0.100000,-0.100000)"
fill="gray" stroke="none">
<path d="M375 1615 c-58 -58 2 -155 78 -126 38 15 60 54 52 91 -13 60 -86 80
-130 35z"/>
<path d="M1532 1617 c-39 -42 -26 -105 27 -127 61 -25 122 35 100 99 -19 55
-88 70 -127 28z"/>
<path d="M320 1452 c-51 -51 -33 -105 46 -138 87 -36 194 10 194 84 0 13 -13
37 -30 53 -23 24 -35 29 -52 23 -29 -10 -65 -10 -100 0 -23 7 -33 3 -58 -22z"/>
<path d="M1479 1453 c-51 -55 -41 -96 31 -133 48 -24 100 -26 146 -4 69 33 83
87 34 136 -24 23 -36 28 -53 23 -28 -10 -64 -10 -102 -1 -25 6 -34 3 -56 -21z"/>
<path d="M710 1315 c85 -85 159 -155 165 -155 5 0 -60 70 -145 155 -85 85
-159 155 -165 155 -5 0 60 -70 145 -155z"/>
<path d="M1270 1315 c-85 -85 -150 -155 -145 -155 6 0 80 70 165 155 85 85
150 155 145 155 -6 0 -80 -70 -165 -155z"/>
<path d="M191 1184 c-27 -34 -27 -64 0 -98 16 -20 29 -26 59 -26 69 0 102 69
59 124 -16 20 -29 26 -59 26 -30 0 -43 -6 -59 -26z"/>
<path d="M1710 1190 c-12 -12 -20 -33 -20 -55 0 -22 8 -43 20 -55 12 -12 33
-20 55 -20 22 0 43 8 55 20 12 12 20 33 20 55 0 22 -8 43 -20 55 -12 12 -33
20 -55 20 -22 0 -43 -8 -55 -20z"/>
<path d="M938 1144 c-80 -43 -76 -179 6 -218 89 -42 179 13 179 109 0 96 -101
155 -185 109z"/>
<path d="M135 1018 c-33 -39 -32 -71 5 -101 62 -52 141 -59 200 -17 45 32 53
53 36 94 -8 18 -20 37 -27 41 -7 5 -52 9 -101 10 -87 2 -89 1 -113 -27z"/>
<path d="M1664 1037 c-9 -5 -22 -25 -30 -44 -14 -31 -13 -38 1 -60 19 -28 87
-62 127 -63 61 0 138 53 138 96 0 13 -10 35 -23 50 -22 25 -29 27 -110 28 -47
1 -94 -2 -103 -7z"/>
<path d="M380 1030 c0 -6 80 -10 220 -10 140 0 220 4 220 10 0 6 -80 10 -220
10 -140 0 -220 -4 -220 -10z"/>
<path d="M1180 1030 c0 -6 80 -10 220 -10 140 0 220 4 220 10 0 6 -80 10 -220
10 -140 0 -220 -4 -220 -10z"/>
<path d="M710 755 c-85 -85 -150 -155 -145 -155 6 0 80 70 165 155 85 85 150
155 145 155 -6 0 -80 -70 -165 -155z"/>
<path d="M1270 755 c85 -85 159 -155 165 -155 5 0 -60 70 -145 155 -85 85
-159 155 -165 155 -5 0 60 -70 145 -155z"/>
<path d="M375 745 c-16 -15 -25 -36 -25 -55 0 -36 38 -80 69 -80 35 0 69 22
82 51 32 78 -67 144 -126 84z"/>
<path d="M1535 745 c-16 -15 -25 -36 -25 -55 0 -38 39 -80 74 -80 39 0 79 41
79 80 0 24 -7 40 -27 57 -35 30 -71 29 -101 -2z"/>
<path d="M320 582 c-43 -43 -41 -83 5 -118 37 -28 104 -41 149 -30 43 11 86
54 86 88 0 39 -52 94 -78 82 -21 -10 -79 -10 -109 1 -17 5 -29 0 -53 -23z"/>
<path d="M1488 590 c-14 -11 -31 -33 -36 -49 -29 -84 131 -148 219 -88 43 29
58 67 39 103 -19 35 -60 55 -84 42 -17 -10 -63 -7 -97 7 -8 3 -27 -3 -41 -15z"/>
</g>
</svg>
